<?xml version="1.0" encoding="utf-8"?>
<!-- Generator: Adobe Illustrator 23.1.0, SVG Export Plug-In . SVG Version: 6.00 Build 0)  -->
<svg version="1.1" id="Layer_1" xmlns="http://www.w3.org/2000/svg" xmlns:xlink="http://www.w3.org/1999/xlink" x="0px" y="0px"
	 viewBox="0 0 64 64" style="enable-background:new 0 0 64 64;" xml:space="preserve">
<g id="guidlines">
</g>
<g id="FB">
</g>
<g id="ig">
</g>
<g id="yt">
</g>
<g id="twitter">
	<path d="M59.5,15.8c-0.8,0.6-1.6,1.1-2.5,1.6c0.1,0.8,0.1,1.7,0.1,2.6c0,11.6-5,22.1-12.9,29.4C38,54,30.3,56.7,21.9,56.7
		C14.6,56.7,7.8,54.6,2,51c1.2,0.2,2.4,0.3,3.7,0.3c5.8,0,11.1-2,15.3-5.3c-5.4-0.1-10-3.7-11.6-8.7c0.7,0.1,1.5,0.2,2.3,0.2
		c1.1,0,2.1-0.1,3.1-0.4c-2.3-0.5-4.3-1.7-5.9-3.3c-2.3-2.2-3.7-5.4-3.7-8.8c0-0.1,0-0.1,0-0.2c1.5,0.8,3.1,1.3,4.9,1.5
		C8.3,24.9,6.8,23,6,20.8c-0.5-1.4-0.8-2.9-0.8-4.4c0-0.6,0-1.3,0.1-1.9c0.3-1.7,0.9-3.3,1.7-4.6c0.9,1,1.9,2,3,3
		c0.5,0.5,1.1,0.9,1.6,1.4c3.1,2.5,6.6,4.5,10.3,6c0.5,0.2,0.9,0.4,1.4,0.5c1.7,0.6,3.4,1.1,5.2,1.4c0.4,0.1,0.8,0.2,1.2,0.2
		c0.2,0,0.3,0.1,0.5,0.1c0.8,0.1,1.5,0.2,2.3,0.3c-0.2-0.9-0.4-1.9-0.4-3c0-4.2,2.1-7.9,5.3-10.1c0.2-0.2,0.4-0.3,0.7-0.4
		c0,0,0.1,0,0.1,0.1V9.3c1.9-1.1,4-1.8,6.4-1.8c3.6,0,6.8,1.5,9.1,4c0.8-0.2,1.7-0.4,2.5-0.6c0.9-0.3,1.7-0.5,2.5-0.9
		c1-0.4,1.9-0.9,2.8-1.4c-0.5,1.5-1.3,2.9-2.3,4.1c-0.7,0.8-1.5,1.5-2.3,2.2c-0.2,0.1-0.4,0.3-0.6,0.4c-0.1,0-0.1,0-0.2,0
		c0,0,0,0,0,0.1l0.1-0.1c0.2,0,0.4-0.1,0.7-0.1c0.9-0.1,1.7-0.3,2.6-0.5c0.9-0.2,1.8-0.5,2.6-0.8C61.2,14.5,60.3,15.1,59.5,15.8z"/>
</g>
<g id="snapchat">
</g>
<g id="WA">
</g>
<g id="Pinterrest">
</g>
<g id="Layer_9">
</g>
<g id="Layer_10">
</g>
<g id="Layer_11">
</g>
<g id="Layer_12">
</g>
<g id="Layer_13">
</g>
<g id="Layer_14">
</g>
<g id="Layer_15">
</g>
<g id="Layer_16">
</g>
<g id="Layer_17">
</g>
</svg>
